HIERARCHY
ROOT Hips
{
    OFFSET 0.000000 0.000000 0.000000
    CHANNELS 6 Xposition Yposition Zposition Zrotation Xrotation Yrotation
    JOINT Spine
    {
        OFFSET -0.000000 7.236184 0.000000
        CHANNELS 3 Zrotation Xrotation Yrotation
        JOINT Spine1
        {
            OFFSET -0.000000 20.420147 0.000000
            CHANNELS 3 Zrotation Xrotation Yrotation
            JOINT Neck
            {
                OFFSET -0.000000 20.336288 1.848754
                CHANNELS 3 Zrotation Xrotation Yrotation
                JOINT Head
                {
                    OFFSET -0.000000 12.354461 -1.764923
                    CHANNELS 3 Zrotation Xrotation Yrotation
                    End Site
                    {
                        OFFSET -0.000000 22.061537 0.000000
                    }
                }
            }
            JOINT LeftShoulder
            {
                OFFSET 3.573296 18.396038 -0.314103
                CHANNELS 3 Zrotation Xrotation Yrotation
                JOINT LeftArm
                {
                    OFFSET 10.880760 0.000000 0.000000
                    CHANNELS 3 Zrotation Xrotation Yrotation
                    JOINT LeftForeArm
                    {
                        OFFSET 27.185530 0.000000 0.000000
                        CHANNELS 3 Zrotation Xrotation Yrotation
                        JOINT LeftHand
                        {
                            OFFSET 27.825975 0.000000 0.000000
                            CHANNELS 3 Zrotation Xrotation Yrotation
                            End Site
                            {
                                OFFSET 13.236923 0.000000 0.000000
                            }
                        }
                    }
                }
            }
            JOINT RightShoulder
            {
                OFFSET -3.474926 18.396038 -0.314103
                CHANNELS 3 Zrotation Xrotation Yrotation
                JOINT RightArm
                {
                    OFFSET -10.880760 0.000000 0.000000
                    CHANNELS 3 Zrotation Xrotation Yrotation
                    JOINT RightForeArm
                    {
                        OFFSET -27.185530 0.000000 0.000000
                        CHANNELS 3 Zrotation Xrotation Yrotation
                        JOINT RightHand
                        {
                            OFFSET -27.825975 0.000000 0.000000
                            CHANNELS 3 Zrotation Xrotation Yrotation
                            End Site
                            {
                                OFFSET -13.236923 0.000000 0.000000
                            }
                        }
                    }
                }
            }
        }
    }
    JOINT LeftUpLeg
    {
        OFFSET 8.824615 0.000000 0.000000
        CHANNELS 3 Zrotation Xrotation Yrotation
        JOINT LeftLeg
        {
            OFFSET -0.000000 -35.111282 0.000000
            CHANNELS 3 Zrotation Xrotation Yrotation
            JOINT LeftFoot
            {
                OFFSET -0.000000 -42.324711 0.000000
                CHANNELS 3 Zrotation Xrotation Yrotation
                JOINT LeftToeBase
                {
                    OFFSET -0.000000 -5.735999 13.236923
                    CHANNELS 3 Zrotation Xrotation Yrotation
                    End Site
                    {
                        OFFSET -0.000000 0.000000 3.529846
                    }
                }
            }
        }
    }
    JOINT RightUpLeg
    {
        OFFSET -8.824615 0.000000 0.000000
        CHANNELS 3 Zrotation Xrotation Yrotation
        JOINT RightLeg
        {
            OFFSET -0.000000 -35.111282 0.000000
            CHANNELS 3 Zrotation Xrotation Yrotation
            JOINT RightFoot
            {
                OFFSET -0.000000 -42.324711 0.000000
                CHANNELS 3 Zrotation Xrotation Yrotation
                JOINT RightToeBase
                {
                    OFFSET -0.000000 -5.735999 13.236923
                    CHANNELS 3 Zrotation Xrotation Yrotation
                    End Site
                    {
                        OFFSET -0.000000 0.000000 3.529846
                    }
                }
            }
        }
    }
}
MOTION
Frames:    10
Frame Time:    0.008333
-1.958316    80.982361    96.128410    0.052466    -4.270307    179.999985    -1.509715    -15.154108    0.614029    -0.121997    7.089902    0.822393    1.210110    8.988465    -8.810070    8.654243    7.039891    -8.557277    0.807840    18.125219    -2.811023    -42.954586    47.822769    -40.784546    -2.760793    -5.164335    -17.630114    18.320230    -5.123802    2.907576    6.242405    19.584902    -3.600515    37.429932    47.585461    42.460800    0.927347    -5.966398    17.493427    -14.740929    -5.530150    -4.490656    3.254038    -4.329250    1.893403    -2.139999    10.932057    2.574348    -0.494226    -9.792933    -8.433071    -0.283723    0.122002    0.314429    -3.779905    -1.228399    3.935377    3.381590    4.832764    6.417573    -1.673977    -6.678350    -12.129193    -0.354504    0.410810    0.383209    
-1.930403    80.981979    96.128700    0.044536    -4.260791    179.994797    -1.511745    -15.157353    0.604053    -0.098139    7.085498    0.811261    1.265513    8.952164    -8.640821    8.653595    7.064290    -8.386642    0.817755    18.132256    -2.833137    -42.984177    47.816288    -40.775364    -2.750658    -5.152681    -17.626850    18.302402    -5.112856    2.895706    6.242927    19.580364    -3.606212    37.435955    47.621597    42.439007    0.888056    -5.991467    17.511232    -14.670660    -5.551845    -4.492960    3.261932    -4.337107    1.911932    -2.129325    10.962975    2.567680    -0.507460    -9.796720    -8.458171    -0.298047    0.122840    0.330302    -3.770392    -1.212134    3.946423    3.385492    4.818374    6.412131    -1.686587    -6.678593    -12.127090    -0.358342    0.416935    0.387354    
-1.902859    80.981720    96.129265    0.036492    -4.253801    179.991745    -1.514874    -15.162046    0.593056    -0.074001    7.080685    0.799347    1.322287    8.914116    -8.464772    8.652927    7.089591    -8.209142    0.826144    18.138800    -2.852888    -43.008572    47.813255    -40.769493    -2.742179    -5.140937    -17.622795    18.283388    -5.101931    2.884858    6.243107    19.574692    -3.612926    37.443172    47.658257    42.415649    0.846769    -6.018139    17.528549    -14.601255    -5.574861    -4.494787    3.270902    -4.340926    1.928533    -2.121756    10.981375    2.558571    -0.520284    -9.796213    -8.477712    -0.309588    0.124026    0.343091    -3.760962    -1.199661    3.953871    3.388721    4.806851    6.407116    -1.699096    -6.680051    -12.124081    -0.362042    0.423071    0.391350    
-1.875650    80.981598    96.130150    0.028240    -4.249270    179.990997    -1.519348    -15.167837    0.581221    -0.049147    7.075272    0.786539    1.379729    8.873728    -8.282136    8.652977    7.116248    -8.024949    0.832625    18.144558    -2.870719    -43.028267    47.813553    -40.766113    -2.735427    -5.129157    -17.617870    18.263552    -5.091088    2.874995    6.242601    19.567642    -3.620641    37.452560    47.692680    42.390591    0.807211    -6.044941    17.543610    -14.535295    -5.598348    -4.494798    3.280702    -4.340953    1.940804    -2.117443    10.987540    2.550139    -0.532795    -9.791368    -8.492413    -0.318345    0.125140    0.352795    -3.751754    -1.190721    3.957910    3.391491    4.797588    6.401724    -1.710616    -6.682455    -12.119637    -0.365565    0.429044    0.395155    
-1.848687    80.981628    96.131401    0.019580    -4.247022    179.992828    -1.525247    -15.174645    0.568325    -0.023742    7.069439    0.772981    1.438055    8.830980    -8.092288    8.654008    7.143813    -7.833352    0.837636    18.149796    -2.886953    -43.043488    47.816906    -40.765392    -2.730131    -5.117507    -17.611954    18.242392    -5.080463    2.865964    6.241535    19.559540    -3.629248    37.463852    47.722572    42.364559    0.772258    -6.070943    17.555252    -14.474600    -5.621799    -4.492352    3.291032    -4.338006    1.951245    -2.115605    10.983210    2.539291    -0.544947    -9.782664    -8.502027    -0.324311    0.126302    0.359406    -3.743153    -1.184758    3.958956    3.394260    4.789971    6.396106    -1.723764    -6.685332    -12.114895    -0.369010    0.434699    0.398876    
-1.821988    80.981812    96.133041    0.010481    -4.247056    179.997467    -1.532822    -15.182263    0.554551    0.002733    7.063209    0.758644    1.496254    8.785335    -7.895562    8.657071    7.172370    -7.634561    0.840627    18.154032    -2.902102    -43.054611    47.823460    -40.766308    -2.725953    -5.106115    -17.605185    18.218857    -5.070221    2.857468    6.239708    19.550138    -3.638854    37.477177    47.747017    42.337265    0.743443    -6.095493    17.563007    -14.420316    -5.644819    -4.486951    3.301828    -4.332353    1.957575    -2.116614    10.968630    2.528856    -0.556743    -9.770042    -8.507418    -0.327728    0.127671    0.363192    -3.735194    -1.181577    3.956829    3.396956    4.783605    6.389595    -1.736115    -6.688739    -12.108960    -0.372388    0.439976    0.402524    
-1.795499    80.982147    96.135101    0.000962    -4.249086    -179.994797    -1.542047    -15.190400    0.539876    0.030331    7.056709    0.743613    1.554017    8.737243    -7.691641    8.662937    7.200921    -7.428106    0.841861    18.157772    -2.916267    -43.061523    47.832600    -40.769527    -2.722598    -5.094935    -17.597244    18.190956    -5.060387    2.848944    6.236849    19.539642    -3.649214    37.492714    47.765793    42.308853    0.720983    -6.118662    17.566591    -14.372586    -5.667523    -4.478663    3.312947    -4.324238    1.959312    -2.120183    10.944507    2.519627    -0.568261    -9.753572    -8.509357    -0.328704    0.128935    0.364272    -3.727936    -1.180647    3.951910    3.399835    4.778041    6.381927    -1.749169    -6.692373    -12.102367    -0.375874    0.445467    0.406290    
-1.769542    80.982643    96.137619    -0.008774    -4.253118    -179.983826    -1.552822    -15.198922    0.524610    0.058977    7.050259    0.728105    1.609814    8.687402    -7.483378    8.672555    7.228315    -7.216690    0.841173    18.160507    -2.929805    -43.065075    47.843849    -40.773933    -2.719780    -5.083866    -17.588133    18.157434    -5.051014    2.839685    6.233010    19.528255    -3.660053    37.509853    47.779182    42.279701    0.704662    -6.140537    17.566074    -14.331695    -5.689911    -4.467534    3.324238    -4.315012    1.959481    -2.125427    10.913387    2.508019    -0.579225    -9.734242    -8.507607    -0.327378    0.130449    0.362802    -3.721534    -1.181760    3.944443    3.403172    4.772883    6.373073    -1.761969    -6.696050    -12.095361    -0.379415    0.450247    0.410114    
-1.743810    80.983284    96.140625    -0.018842    -4.258965    -179.969254    -1.565337    -15.207609    0.508642    0.089229    7.043821    0.712088    1.663279    8.635404    -7.268610    8.687443    7.254321    -6.997885    0.838377    18.162502    -2.943099    -43.065090    47.856647    -40.779755    -2.717634    -5.072511    -17.577993    18.118233    -5.041634    2.829717    6.228010    19.516068    -3.671250    37.528999    47.787567    42.248932    0.693640    -6.161559    17.562103    -14.296336    -5.712321    -4.454026    3.335645    -4.304685    1.956206    -2.132351    10.875353    2.496516    -0.590025    -9.711920    -8.503299    -0.323982    0.132281    0.359038    -3.715924    -1.184552    3.934192    3.406969    4.767798    6.362416    -1.774527    -6.699756    -12.087328    -0.383137    0.454882    0.414135    
-1.718705    80.984070    96.144127    -0.028852    -4.266443    -179.951050    -1.579213    -15.216194    0.492414    0.120824    7.037707    0.695842    1.712377    8.582549    -7.051362    8.708959    7.277544    -6.775534    0.833304    18.163269    -2.956083    -43.062202    47.870708    -40.786293    -2.716028    -5.060725    -17.567408    18.076038    -5.032058    2.819429    6.222100    19.503256    -3.682677    37.549549    47.791557    42.216972    0.687327    -6.181736    17.555092    -14.266329    -5.734606    -4.438604    3.347222    -4.294340    1.950791    -2.140581    10.832758    2.483565    -0.600327    -9.687481    -8.496300    -0.318596    0.134295    0.353067    -3.711038    -1.188679    3.921296    3.411224    4.762591    6.350312    -1.786135    -6.703431    -12.078665    -0.386999    0.459246    0.418307    
